<svg fill="none" viewBox="0 0 60 55" id="logo" xmlns="http://www.w3.org/2000/svg">
        <path
            d="M37.111 9.876l.226.083a.315.315 0 00.402-.17l.438-1.089A.294.294 0 0038 8.32l-.23-.087a.316.316 0 00-.403.169l-.437 1.09c-.063.15.022.324.18.384zm.09-.311l.402-.999c.018-.047.068-.082.127-.06l.094.034a.093.093 0 01.055.126l-.402.998c-.018.044-.068.083-.131.061l-.09-.035c-.063-.021-.068-.082-.054-.125zm3.02-2.953l.452.203a.66.66 0 00.862-.303l1.106-2.214a.604.604 0 00-.312-.826l-.451-.203a.664.664 0 00-.862.307L39.91 5.79a.61.61 0 00.311.822zm.307-.662l1.016-2.032c.036-.082.126-.139.23-.091l.185.082c.1.043.117.147.072.23l-1.01 2.032c-.041.082-.136.134-.231.09l-.185-.082c-.104-.047-.117-.151-.077-.229zm-3.286-.502l.158-.531-.772-.208.271-.908.605.164.153-.527-.604-.16.266-.913.772.208.153-.567-1.367-.371-1.003 3.446 1.368.367zm-2.026 3.806l.433-1.656-.276-.065-.19.709-.333-.078.19-.71-.28-.064-.434 1.656.276.065.19-.71.333.079-.185.709.276.065zm7.442 37.438h-.008l-1.612.662c.23-.411.465-.84.7-1.267l.18-.307-.004-.013c0-.005 0-.005.004-.009-.239-.886-.456-1.773-.695-2.664-.004.005-.009.013-.018.018l-.004-.018-.01.035c-.546.597-1.07 1.19-1.615 1.782.018 1.232.058 2.438.081 3.654h.009l-.009.038.126-.017c1.165.195 2.316.368 3.48.545l1.964-1.453c-.83-.342-1.684-.666-2.519-1.008a.172.172 0 00-.05.022zm2.474-2.663c.199-.602.41-1.203.627-1.804l-1.191-2.603c-.456.727-.912 1.431-1.368 2.158.24 1.25.474 2.482.713 3.732 1.269-.022 2.537-.04 3.787-.06.596-.628 1.192-1.233 1.765-1.86l-2.758-.584-1.575 1.02zM35.455 4.306l.171-.887a.624.624 0 00-.514-.726l-.492-.09.162-.831 1.034.186.14-.571-1.652-.294-.722 3.511 1.11.2a.646.646 0 00.763-.498zm-1.142-.182l.203-1.029.348.06c.103.022.148.113.13.204l-.135.687c-.018.091-.095.165-.199.143l-.347-.065zm4.888-1.12c.032-.086.117-.147.221-.108l.208.074c.104.039.126.138.095.22l-.235.61c-.032.086-.117.147-.221.108l-.397-.138-.199.514.393.139c.103.039.126.134.094.22l-.234.649c-.032.086-.118.147-.221.108l-.203-.074c-.104-.034-.131-.134-.095-.22l.135-.355-.591-.207-.172.45a.62.62 0 00.38.8l.487.168a.657.657 0 00.835-.368l.307-.838a.475.475 0 00-.027-.45.486.486 0 00.32-.303l.276-.705a.61.61 0 00-.384-.8l-.483-.173a.656.656 0 00-.83.372l-.177.45.592.208.126-.35zm-2.73 6.625L37.016 8l-.271-.082-.235.696-.33-.1.235-.696-.27-.082-.547 1.626.271.082.235-.696.325.1-.235.7.275.082zM24.468 47.453c-.623-.476-1.25-.973-1.892-1.448l-.009-.022v.013l-.018-.013c-.059.908-.14 1.816-.216 2.724.009.009.013.017.022.03l-.004.03 1.114 1.35c-.586-.121-1.16-.26-1.75-.38l-1.553.972-.705.441h.01c-.01.009-.023.013-.032.022.713.363 1.449.705 2.162 1.068 1.15-.402 2.28-.787 3.43-1.19-.185-1.193-.36-2.403-.56-3.597zM39.224 9.115l.104-.22-.628-.264-.722 1.565.627.264.104-.225-.37-.155.208-.446.289.121.103-.22-.289-.121.208-.45.366.151zm-7.457 43.203l.506-.48.835-.727.257-2.806-.063.03v-.013l-.014.018-2.13 1.11-1.17 3.512 3.233 1.816 2.378-.687-2.063-1.86-1.769.087zm8.58-25.076l1.436-.951 1.43.951-.505-1.596 1.39-1.007-1.746-.035-.574-1.574-.568 1.574-1.752.035 1.395 1.008-.505 1.595zm-17.233 8.454h6.518V26.3l-7.71 5.037 1.192 4.359zm4.42-6.473l.744-.498v1.566l-.745.493v-1.561zm-2.93-1.881v1.509l2.302-1.51h-2.302zm2.063 20.98l-.041-.021.257 2.806.574.497.749.71-1.76-.078-2.063 1.86 2.379.687 3.231-1.816-1.169-3.512-2.157-1.133zm7.104-21.599V24.6H26.09v2.123h1.873l1.887-1.24 1.932 1.24h1.99zm-5.714 13.678l-.059.177-.668 2.02-.668-2.02-.058-.178-.032-.086h-.709V44.292h.682v-2.335l.266.74.334.93h.366l.334-.93.266-.74v2.335h.654v-3.978h-.686l-.022.087zm5.976-31.645l-.397-.069.094-.48.312.056.05-.237-.312-.057.095-.48.397.074.05-.238-.677-.125-.334 1.677.677.126.045-.247zm-2.862 31.645a.72.72 0 00-.447-.152H30.16a.743.743 0 00-.596.311c-.004.005-.004.014-.009.018a.661.661 0 00-.103.341l-.019.891c0 .139.041.255.113.36.122.176.339.297.596.34l.045.01.348.064a.287.287 0 01.185.108c.023.035.04.07.04.113v.748c0 .112-.076.229-.22.229h-.23c-.15 0-.222-.117-.222-.23v-.388h-.655v.501c0 .372.321.675.71.675h.559c.393 0 .708-.303.708-.675V42.64c0-.371-.297-.622-.708-.696l-.393-.073a.335.335 0 01-.122-.048c-.063-.043-.104-.104-.104-.177l.019-.618a.22.22 0 01.103-.19.25.25 0 01.122-.035h.23a.22.22 0 01.226.225v.389h.65v-.502a.675.675 0 00-.1-.341.757.757 0 00-.162-.173zm7.1 9.34l-.004-.005-.221.052c-.51.113-1.011.23-1.521.333l.744-.908.366-.441v-.009l.04-.051c-.08-.909-.157-1.817-.216-2.725a.12.12 0 00-.036.03v-.03l-.023.048c-.632.471-1.246.956-1.86 1.423-.194 1.171-.37 2.36-.546 3.532l-.027.06h.023c1.15.403 2.28.788 3.43 1.19.713-.359 1.45-.705 2.162-1.068-.754-.484-1.525-.969-2.28-1.431-.017-.005-.026-.005-.03 0zm-4.527-9.332a.716.716 0 00-.442-.151h-.565c-.166 0-.32.06-.442.151a.664.664 0 00-.266.523l-.01.883c0 .371.303.63.71.7l.397.074a.287.287 0 01.185.108c.022.034.036.069.036.112v.748c0 .113-.077.23-.221.23H32.9c-.153 0-.221-.117-.221-.23v-.389h-.655v.502c0 .371.32.674.709.674h.564c.388 0 .709-.303.709-.674l.022-.995v-.026c0-.372-.302-.623-.708-.696l-.393-.074c-.14-.021-.226-.108-.226-.224l-.013-.614c0-.113.072-.225.221-.225h.23c.145 0 .221.112.221.224v.39h.655v-.502a.664.664 0 00-.104-.346.894.894 0 00-.167-.173zm7.457-28.617l.92-1.466-.248-.143-.42.67-.162-.09c-.054-.03-.054-.091-.032-.134l.366-.584-.244-.143-.392.627a.288.288 0 00.108.402l.221.13-.366.584.249.147zm5.484 3.317l.18-.17-.22-.215.37-.342.28.277.184-.169-.478-.471-1.287 1.185.479.471.185-.169-.28-.276.37-.338.217.217zm.343 1.461l1.35-1.124-.19-.208-.578.485-.226-.247.578-.48-.19-.207-1.345 1.124.185.203.578-.48.226.247-.578.484.19.203zm-.948-3.394c-.199.181-.89.96-1.241.895l-.045-.04-.366.373.208.186.19-.195.473.424-.19.194.213.19.365-.371-.09-.078 1.047-1.068-.564-.51zm-.69 1.388l-.29-.26c.33-.108.641-.44.858-.622.05-.044.108-.1.154-.143l.153.134-.876.89zm2.46 2.996l1.412-1.046-.18-.225-1.057.355.84-.619-.176-.216-1.413 1.046.18.225 1.057-.354-.84.623.176.211zm12.091 4.852l.014-.017-3.688 1.111-1.25 2.27-.366-2.408-.027-.186-1.77-1.34-1.322-1.021v.013l-.018-.013.018.043-.275 3.468 3.105 3.853.086.225.05-.057.009.013 4.54-2.585.953-3.39-.059.021zM49.7 17.57l.207-.138-.388-.54-1.471.968.392.54.208-.138-.226-.316.42-.276.18.246.208-.138-.18-.251.424-.277.226.32zm5.34-2.837l-2.727 1.652.334.506 2.722-1.652.311.472.488-.29-.948-1.444-.487.29.306.466zm-10.558-.648l.248-.913.89-.41-.23-.182-.74.341.473-.549-.221-.173-.474.55.208-.761-.23-.182-.249.912-.89.411.231.182.736-.342-.47.55.217.172.474-.549-.203.757.23.186zm8.96 4.12l2.112-.298-1.819.865.284.54 3.377-1.604-.294-.557-2.162.324 1.864-.887-.28-.536-3.376 1.609.294.545zM50.16 38.802l-.054-.005-1.44 1.285c.118-.65.253-1.302.366-1.95-.307-.463-.61-.935-.916-1.406l-.75-1.198v.043-.004c-.356.83-.735 1.673-1.087 2.504.437 1.271.893 2.542 1.35 3.814 1.326-.247 2.658-.467 3.985-.705.514-.748 1.029-1.492 1.548-2.223-.993-.056-1.986-.117-3.002-.155zm1.07-23.917l.298.38a.672.672 0 00.912.121l.397-.28-.375-.476-.311.22c-.077.056-.185.06-.248-.021l-.122-.156c-.068-.087-.027-.178.045-.234l1.846-1.314c.077-.056.18-.065.248.021l.117.152c.068.082.032.181-.045.238l-.316.224.375.476.402-.285a.597.597 0 00.135-.865l-.298-.385a.666.666 0 00-.907-.121l-2.018 1.436a.602.602 0 00-.135.869zm-1.449-1.643l.33.354c.239.26.645.277.916.048l1.882-1.592a.6.6 0 00.063-.873l-.334-.359a.669.669 0 00-.916-.048l-1.882 1.592a.605.605 0 00-.059.878zm.55-.506l1.725-1.458c.072-.06.176-.077.248.005l.136.142c.072.078.045.178-.027.238l-1.725 1.457c-.072.061-.176.074-.248-.004l-.135-.143c-.077-.082-.045-.181.027-.237zm-2.306-1.202l1.084-1.086.46.42-1.083 1.085.456.415 2.59-2.599-.455-.415-1.115 1.116-.465-.42 1.115-1.115-.456-.415-2.591 2.598.46.415zm4.013 23.557l-.528.597c.04-.735.081-1.457.117-2.197-.388-.45-.767-.895-1.15-1.344l-.976-1.16.005.027-.005-.005c-.275.947-.555 1.894-.83 2.846a371.909 371.909 0 001.927 3.77l.014.083.022-.013a.128.128 0 01.018.034c1.386-.445 2.776-.886 4.162-1.332.456-.869.912-1.734 1.367-2.624-1.092.099-2.162.181-3.254.263-.289.36-.587.71-.89 1.055zm-5.696-24.937l.388.298a.67.67 0 00.912-.095l.311-.367-.483-.376-.244.29c-.058.068-.162.099-.248.034l-.158-.121c-.086-.07-.077-.169-.013-.238l1.448-1.712c.06-.07.158-.1.244-.035l.158.121c.081.065.077.169.018.238l-.248.294.483.372.316-.372a.597.597 0 00-.09-.873l-.389-.299a.667.667 0 00-.911.1l-1.58 1.868a.596.596 0 00.086.873zm-2.884 2.214l.148-.195-.257-.181.307-.394.325.23.149-.195-.555-.39-1.056 1.38.555.39.153-.2-.325-.229.303-.393.253.177zm.798-3.68l.456-.428.623.41-.257.559.523.341 1.567-3.334-.704-.467-2.722 2.573.514.346zm1.919-1.755l-.542 1.223-.442-.294.984-.93zm-3.837.63l1.598-2.632.555.302-1.598 2.634.546.298 1.887-3.11-1.647-.899-1.887 3.11.546.298zm-2.14 1.726l-.275 1.306c-.045.043-.126.169-.207.126l-.05-.026-.126.224.099.052c.158.082.316-.008.42-.12l1.056-1.09-.253-.13-.587.597.172-.813-.248-.126zm-9.92 26.408h6.572l1.227-4.346-7.8-5.033v9.379zm1.21-6.997l.744.493v1.566l-.745-.493v-1.566zm10.688-17.132l.216.139a.32.32 0 00.429-.083l.253-.367a.286.286 0 00-.086-.407l-.456-.29-.993 1.423.24.152.397-.567zm.456-.649l.157.1c.055.034.05.095.023.134l-.194.281c-.027.039-.086.065-.14.03l-.163-.1.317-.444zM54.976 28.92l-.054.013-1.29 1.89c-.041-.788-.096-1.57-.136-2.335a336.2 336.2 0 00-2.596-2.444.148.148 0 01-.009.048l-.031-.03.022.073c-.194 1.02-.365 2.054-.56 3.075a916.2 916.2 0 002.619 3.952c1.448-.644 2.915-1.289 4.364-1.955.38-.99.772-1.997 1.151-3.005-1.15.242-2.32.463-3.47.71-.01.004-.01.008-.01.008zm-19.652.026v-1.54h-2.397l2.397 1.54zM23.684 7.809l.098-.026c.064-.013.109.026.118.074l.045.164.275-.065-.058-.211a.306.306 0 00-.375-.212l-.24.06a.294.294 0 00-.225.36l.298 1.162c.04.156.208.251.375.212l.239-.056c.167-.039.266-.234.225-.39l-.05-.168-.274.065.036.121c.013.048-.01.125-.068.138l-.1.022c-.063.017-.108-.026-.117-.073l-.275-1.056c-.01-.047.009-.103.072-.12zm-2.037.364l-.595.207.614 1.604.266-.095-.528-1.375.33-.117-.087-.224zm6.41.216l.086.285.284-.021-.479-1.717-.397.03-.207 1.769.284-.022.036-.298.393-.026zm-.284-.956h.013v.018l.199.7-.298.022.085-.723v-.017zm-9.24-1.41c.14.32.52.472.844.346l.465-.181a.607.607 0 00.352-.809l-.943-2.222a.656.656 0 00-.844-.346l-.465.181a.607.607 0 00-.352.809l.943 2.223zm-.235-2.577l.19-.073c.1-.04.19.017.226.104l.866 2.036c.036.082.014.186-.085.22l-.186.074c-.103.04-.19-.017-.225-.103l-.867-2.037c-.04-.082-.022-.182.081-.22zm-7.04 11.537c.198.182 1.055.835.997 1.172l-.041.043.402.337.19-.203-.208-.177.428-.467.208.173.19-.208-.402-.337-.081.09-1.174-.985-.51.562zm1.47.614l-.261.281c-.122-.311-.479-.597-.682-.795a5.255 5.255 0 00-.158-.143l.136-.147.966.804zm.565-2.633l-.415.376 1.223 1.245.225-.173-.492-.501.194-.2a.285.285 0 00.014-.414l-.312-.32a.326.326 0 00-.437-.013zm.492.618l-.14.125-.384-.393.14-.125a.102.102 0 01.14.008l.244.247c.036.039.045.1 0 .138zm1.232-1.993l.736 1.206c.027.043.036.1-.018.139l-.041.026.153.198.086-.06c.136-.095.15-.273.063-.411l-.632-1.038.131-.095.921 1.172.23-.164-1.074-1.367-.555.394zm-1.693-1.912l-.28-.544.61-.433.47.411.505-.363-2.803-2.495-.69.493 1.678 3.295.51-.364zm-1.146-2.283l1.065.93-.433.307-.632-1.237zm18.6.009l.01-.216a.304.304 0 00-.303-.303l-.244-.004c-.171-.005-.316.125-.32.285l-.032 1.168c-.004.16.131.298.303.302l.244.005a.302.302 0 00.316-.286l.004-.19-.284-.009-.005.143c0 .048-.036.1-.1.1l-.098-.005c-.068 0-.095-.056-.095-.104l.027-1.068c0-.052.036-.1.1-.1l.099.005c.063 0 .094.052.094.104l-.004.169.289.004zm-16.804 4.964l.916 1.544.222-.173-.154-.264.303-.242.243.19.217-.177-1.44-1.12-.307.242zm.488.225l.013.013.587.458-.226.186-.37-.631-.013-.013.009-.013zm2.035-4.956l-.957-1.712 1.097.973.32-.164-.234-1.414.957 1.716.56-.285-1.747-3.126-.573.294.365 1.989-1.52-1.406-.574.294 1.747 3.127.56-.286zM30.661.596l.411.01a.437.437 0 00.451-.429l.005-.155-.456-.009v.095c0 .048-.032.09-.081.09h-.23c-.05-.003-.082-.038-.077-.09V.013L30.228 0v.16a.426.426 0 00.433.437zM22.446 9.44c.05.155.226.242.389.194l.234-.069a.293.293 0 00.203-.368l-.36-1.132a.314.314 0 00-.389-.195l-.235.07a.292.292 0 00-.203.367l.361 1.133zm-.013-1.276l.1-.026a.099.099 0 01.121.065l.334 1.025c.014.047 0 .104-.063.125l-.095.026c-.063.017-.108-.022-.126-.07l-.334-1.02a.1.1 0 01.063-.125zm4.581.355l-.207-1.48-.772.1c.022.264.22 1.297-.054 1.514l-.06.008.073.506.285-.039-.037-.26.646-.086.036.264.284-.039-.072-.506-.122.018zm-.677.09c.127-.311.05-.778.036-1.055-.004-.06-.009-.138-.018-.203l.203-.03.172 1.236-.393.052zm1.742-4.108l.502-.021a.628.628 0 00.613-.653l-.117-2.46A.634.634 0 0028.4.773l-.501.022c-.352.017-.632.307-.614.648l.117 2.465c.018.346.325.605.677.592zm.037-3.156l.203-.009c.108-.004.171.078.176.169l.108 2.261c.005.091-.054.182-.163.186l-.203.009c-.112.004-.171-.078-.176-.169l-.108-2.261c0-.091.05-.182.163-.186zm-3.079 7.277c-.004.06.01.208-.076.225l-.055.009.05.25.113-.021c.176-.03.235-.199.244-.346l.099-1.5-.28.052-.059.834-.41-.757-.28.052.654 1.202zm-3.47-3.061l-.43-1.336.452-.178a.62.62 0 00.424-.782l-.275-.856a.651.651 0 00-.808-.416l-1.115.325 1.128 3.42.623-.177zm-.99-2.845l.34-.1c.103-.03.184.035.216.121l.217.666c.027.087-.005.182-.109.212l-.343.1-.32-1zm5.264 1.95l-.185-1.345.83 1.263.655-.083-1.084-1.651.596-1.916-.654.082-.46 1.479-.186-1.392-.623.077.488 3.564.623-.078zM28.648 6.9l.04 1.708.285-.004-.018-.683.262-.004c.171-.005.307-.139.302-.299l-.009-.437a.3.3 0 00-.316-.285l-.546.004zm.6.338l.01.341c0 .048-.032.1-.095.104l-.19.004-.013-.536.194-.004c.058-.009.095.039.095.09zm1.801-.06l.285.016-.095 1.462.284.017.095-1.461.289.017.014-.242-.858-.052-.014.242zm1.955 1.348l.05-.389c.013-.09-.014-.16-.077-.208a.217.217 0 00.126-.177l.045-.337c.023-.16-.099-.307-.266-.329l-.546-.065-.226 1.695.542.07c.176.017.33-.1.352-.26zm-.42-1.24l.185.02c.063.01.09.061.086.109l-.04.29c-.01.047-.046.095-.11.086l-.184-.022.063-.484zm-.162 1.206l.063-.485.19.022a.09.09 0 01.08.108l-.04.29c-.01.047-.045.095-.108.086l-.185-.021zm-15.794 2.862l-.42-.592-.234.151 1.015 1.444.456-.29a.282.282 0 00.086-.406l-.253-.363a.324.324 0 00-.428-.082l-.222.138zm.43.117l.198.285c.027.04.031.1-.023.134l-.158.1-.311-.445.158-.1a.096.096 0 01.135.026zm14.131-8.968l-.031 1.941.636.009.059-3.615-.65-.009-.695 1.998.031-2.006-.632-.01-.058 3.616.645.009.695-1.933zM12.58 13.612l-.478.472 1.282 1.189.478-.471-.185-.17-.28.278-.365-.342.221-.216-.18-.169-.222.216-.37-.341.28-.277-.18-.169zM5.535 28.41l.05-.126 3.163-3.952-.28-3.511-3.11 2.36-.193 1.415-.185 1.21-1.269-2.3-3.687-1.111.004.008L0 22.395l.952 3.39 4.523 2.564.059.06zM28.67 14.226a.095.095 0 00.004.143.11.11 0 00.15 0 .099.099 0 000-.143.116.116 0 00-.154 0zm3.29 7.65h-.74V20.85h-.56v1.025h-2.934v.674H25.34l.695 1.393h7.686l.696-1.393H31.96v-.674zm-4.635 1.704h-.7v-.67h.7v.67zm1.444 0h-.7v-.67h.7v.67zm1.449 0h-.7v-.67h.7v.67zm2.198-.67h.7v.67h-.7v-.67zm-.75.67h-.699v-.67h.7v.67zm-.266-9.194c.041-.038.046-.103 0-.142a.11.11 0 00-.148 0 .095.095 0 00-.005.142.115.115 0 00.153 0zm-4.703 1.38c0 .039-.004.082-.004.12 0 .295.045.58.126.853a32.993 32.993 0 00-10.065 2.655l-.059.026a9.279 9.279 0 00-1.72.817l-.072.043a28.27 28.27 0 00-3.277 1.96l-.104.073.276 1.963c.261 1.997.672 3.883 1.24 5.638.01.022.105.39.105.39l.027-.005c.65 1.929 1.49 3.71 2.5 5.35.163.263.334.523.51.778.127.19.249.385.384.57.217.307.451.606.682.9.27.346.55.679.84 1.003.288.329.586.644.893.96.059.06.113.121.171.177 2.862 2.85 6.473 4.999 10.761 6.348l.077.022.072-.026c4.265-1.6 7.736-3.693 10.463-6.344.058-.056.117-.117.176-.177a20.755 20.755 0 001.76-1.963 22.72 22.72 0 001.589-2.249c1.877-3.031 3.132-6.585 3.8-10.724l.384-2.451.023-.13-.118-.07c-1.756-1.115-3.466-2.049-5.082-2.771-.027-.013-.492-.26-.492-.26-.04-.021-.587-.216-.587-.216l-.27-.09a32.959 32.959 0 00-7.584-2.033c-.352-.052-.704-.09-1.051-.13.085-.28.135-.575.135-.882 0-.03-.005-.06-.005-.09-.054-1.674-1.49-3.023-3.254-3.023-1.751 0-3.182 1.332-3.25 2.988zm13.465 24.146l-.19.177c-2.618 2.456-5.904 4.41-9.912 5.924-4.035-1.284-7.461-3.282-10.215-5.924-.058-.056-.117-.117-.18-.177a23.738 23.738 0 01-.925-.96H41.106c-.303.329-.614.648-.944.96zm1.823-1.963H17.878c-.239-.29-.46-.597-.686-.9H42.687c-.226.307-.456.606-.7.9zm-8.978-20.722c.357.035.718.078 1.08.13 2.405.333 4.928.973 7.555 2.015.009 0 .275.095.275.095s.542.195.547.195l.433.233c1.616.723 3.268 1.626 4.965 2.699l-.357 2.309c-.519 3.217-1.399 6.075-2.654 8.61h-6.694l-.085.246h6.657c-.248.488-.51.96-.785 1.422h-6.297l-.158.52-.004.004h6.125c-.05.077-.095.155-.144.233l-.19.277c-.059.086-.113.173-.176.26 0 0 0 .003-.005.003H16.787s0-.004-.005-.004c-.059-.086-.113-.173-.172-.26l-.19-.285c-.049-.073-.099-.147-.148-.224h6.224V35.7l-.158-.519h-6.382a24.237 24.237 0 01-.786-1.422h6.78l-.081-.247h-6.82a25.895 25.895 0 01-1.4-3.36h-.018a49.097 49.097 0 00-.072-.272 31.5 31.5 0 01-1.232-5.574l-.01-.06s-.207-1.501-.239-1.7a28.12 28.12 0 013.12-1.855l.058-.03.045-.026c.46-.286.998-.54 1.643-.779.05-.017.086-.034.086-.034a32.656 32.656 0 018.96-2.508c.356-.048.717-.082 1.078-.117.51 1.09 1.652 1.85 2.98 1.85 1.313 0 2.446-.747 2.96-1.82zm-2.78-2.715l.221-.208.302.299.244-.23a.288.288 0 01.081-.263.319.319 0 01.443.004.291.291 0 01-.005.424.324.324 0 01-.316.065l-.23.22.303.298-.226.208-.303-.298-.483.454.181.168 1.088 1.02.24.226a.932.932 0 00.167-.618l-.204.064.176-.588.054-.173c.059.07.108.13.145.186.121.19.126.32.149.407h-.005c.032.198.01.398-.054.583a1.155 1.155 0 01-.19.35l.068.061.027.026-.221.212-.09-.082a1.32 1.32 0 01-.975.25l-.027.03c-.109-.02-.267-.051-.547-.25l-.08-.017.717-.212.104-.048-.01.026-.058.169a.963.963 0 00.6-.147l.046-.026-.492-.458-1.025-.956-1.025.96-.465.432c.005 0 .005.005.01.005a.994.994 0 00.636.168l-.063-.186-.005-.008.036.008.758.23-.054.038c-.28.2-.46.208-.573.225l-.004-.004c-.348.048-.7-.043-.975-.25l-.095.081-.217-.216.063-.06.027-.026a1.179 1.179 0 01-.203-.385 1.189 1.189 0 01-.04-.55h-.005c.023-.09.027-.233.172-.44.031-.048.067-.1.117-.152l.045.147.185.614-.207-.069a.864.864 0 00.063.428c.027.065.059.13.104.19l.216-.203 1.097-1.025.172-.16-.483-.454-.303.299-.225-.208.307-.298-.235-.22a.324.324 0 01-.316-.066.29.29 0 01-.005-.419.328.328 0 01.443-.004.286.286 0 01.085.264l.244.229.303-.299.22.208-.302.303.488.458.487-.458-.293-.303zm-28.22 3.381l2.501 1.241a.723.723 0 00.957-.294l.262-.48a.666.666 0 00-.303-.916l-.41-.204-.303.558.307.152c.104.051.176.172.109.298l-.104.194c-.073.13-.212.139-.316.087l-2.293-1.137c-.104-.052-.18-.169-.109-.294l.104-.195c.068-.125.212-.134.316-.082l.361.181.307-.57-.465-.23a.727.727 0 00-.957.295l-.261.48a.661.661 0 00.298.916zm14.787 23.891c-.456-.726-.912-1.431-1.367-2.157-.005.008-.014.021-.014.034l-.004-.035-1.17 2.586.637 1.838c-.515-.346-1.052-.688-1.584-1.03-.005 0-.01.005-.014.005l-.004-.004-2.754.584.027.008c.574.623 1.165 1.224 1.756 1.847 1.25.021 2.519.039 3.787.06.226-1.254.465-2.482.704-3.736zm3.53 6.82l-.009-.035c.009 0 .018-.005.027-.005.023-1.21.063-2.421.081-3.653-.532-.606-1.092-1.211-1.643-1.817l-.713 2.686.501.852c.136.246.271.488.406.726l-1.44-.592c-.076-.035-.157-.065-.239-.1-.835.342-1.688.666-2.518 1.008.009.008.018.013.027.017l-.005.004h.01c.645.48 1.29.956 1.931 1.432a229.79 229.79 0 003.471-.54l.113.016zM9.352 37.701l.01.005.004-.026c.663-1.28 1.313-2.552 1.959-3.827l-.83-2.845c-.01.012-.019.021-.028.034l.01-.056-2.104 2.5.117 2.218c-.474-.567-.952-1.112-1.426-1.674a183.698 183.698 0 01-3.232-.264.07.07 0 01.01.022H3.81l.045.035c.428.869.875 1.72 1.322 2.568 1.39.445 2.776.886 4.162 1.332.004-.005.009-.009.013-.022zm4.37.372c-.357-.83-.736-1.673-1.093-2.504-.009.013-.013.026-.022.04l.004-.078-1.282 2.045c-.122.186-.244.376-.36.562V38.161l.356 1.937-1.45-1.293-.035.004v-.004c-.94.039-1.891.095-2.83.151l-.185.009.031.017c.51.722 1.025 1.466 1.535 2.206 1.327.242 2.658.462 3.985.704.452-1.275.908-2.547 1.346-3.818zm-4.05-8.86c-.193-1.034-.37-2.08-.563-3.113l.009-.035-.014.013c0-.013-.004-.022-.004-.035-.583.554-1.174 1.107-1.77 1.665l-.848.774-.118 2.361-1.309-1.916-.027-.008c-.004-.004-.009-.009-.009-.013-1.15-.242-2.32-.463-3.47-.71l.008.027-.009-.005.014.013c.374 1 .767 1.994 1.137 2.971 1.449.666 2.911 1.315 4.36 1.955a390.354 390.354 0 002.614-3.944zM7.318 14.892l-.064.07.488.345.153-.19c.23-.294.077-.627-.13-.878l-2.05-2.43-.383.489 1.074 1.284-1.616-.588-.38.484 2.732.982c.117.134.316.264.176.432zM22.853 4.618a.65.65 0 00.771.476l.488-.104a.619.619 0 00.492-.74l-.108-.462-.61.13.086.363c.018.09-.023.186-.126.207l-.199.044c-.108.021-.185-.048-.203-.139l-.492-2.21c-.023-.09.013-.18.126-.207l.194-.043c.104-.022.186.047.204.138l.08.372.61-.13-.108-.467a.645.645 0 00-.767-.475l-.488.1a.62.62 0 00-.492.739l.542 2.408zM10.842 15.446l-.425.514 1.404 1.06.425-.515-.204-.151-.248.303-.402-.303.2-.238-.2-.151-.194.238-.401-.303.248-.299-.203-.155zm6.423-5.332l-.244.139.939 1.504.248-.138-.41-.649.297-.168.411.648.244-.138-.93-1.496-.248.138.392.636-.298.168-.401-.644zm-5.168.545a.66.66 0 00.05-.925l-.628-.675a.674.674 0 00-.916-.056l-.375.316-.632-.67.826-.64-.375-.403-1.295 1.09 2.5 2.677.845-.714zm-1.233-1.137c.082-.07.185-.043.249.021l.487.524c.063.069.077.168-.004.237l-.262.225-.731-.782.261-.225zm9.186-.766l-.628.268.736 1.588.627-.269-.103-.225-.366.16-.212-.475.289-.126-.104-.22-.289.125-.212-.445.366-.156-.104-.225zm-11.294 5.19l.452-.472-.668-1.436 1.11.973.434-.45-1.11-.972 1.601.45.452-.472-2.058-.588-.795-1.803-.451.471.61 1.38-1.048-.913-.433.45 1.047.912-1.494-.45-.451.472 1.95.588.852 1.86zm16.557 1.521l-.01.087-.09.013a34.725 34.725 0 00-8.99 2.577c-.741.273-1.405.588-1.973.939-2.514 1.297-3.923 2.408-3.981 2.456 0 0-.118.09-.172.134v.212c0 .596.104 1.496.312 2.667a32.924 32.924 0 001.286 5.825c0 .009.077.312.077.312 2.897 8.583 9.185 14.55 18.172 17.248 0 0 .103.03.158.048a9.88 9.88 0 00.153-.056c11.221-4.065 17.31-11.29 19.16-22.745a43.99 43.99 0 00.479-3.256l.027-.268-.226-.152a42.05 42.05 0 00-5.881-3.247 80.343 80.343 0 00-.573-.307c0 .004-.709-.25-.709-.25l-.207-.075a34.403 34.403 0 00-7.439-2.032l-.09-.013-.01-.086c-.234-2.357-2.27-4.138-4.739-4.138-2.442.013-4.477 1.772-4.734 4.107zm9.045.472v.039a33.58 33.58 0 017.8 2.088c.302.108.604.208.907.325.18.09.347.177.505.268a40.69 40.69 0 015.855 3.23s-.131 1.332-.474 3.23c-1.919 11.865-8.4 18.602-18.863 22.39-8.436-2.534-14.913-8.224-17.833-16.933l-.023.004-.086-.337a32.445 32.445 0 01-1.273-5.768c-.18-1.025-.306-1.963-.306-2.595 0 0 1.421-1.128 3.935-2.426a10.613 10.613 0 011.91-.908 34.301 34.301 0 019.32-2.616c0-2.27 1.932-4.112 4.31-4.112 2.38 0 4.316 1.85 4.316 4.12zM9.763 17.504l.673.454c.135.095.33.06.428-.069l.095-.13.208.143.167-.225-.212-.143.094-.125a.288.288 0 00-.072-.41l-.672-.455a.317.317 0 00-.43.07l-.094.125-.081-.052-.167.225.081.052-.095.125a.298.298 0 00.077.415zm.424-.696c.036-.052.1-.048.14-.017l.587.398c.04.025.068.082.027.134l-.05.069-.758-.51.054-.074zm-.243.367l.054-.069.758.51-.054.074c-.036.052-.1.048-.14.017l-.587-.393c-.045-.035-.072-.09-.031-.139zm8.783-7.848l-.221.108a.289.289 0 00-.135.398l.56 1.038c.076.143.261.225.415.151l.216-.108a.289.289 0 00.136-.398l-.56-1.063c-.072-.143-.262-.2-.41-.126zm.655 1.393l-.09.043c-.06.03-.114-.005-.136-.043l-.515-.952c-.022-.043-.018-.104.041-.13l.09-.043c.059-.03.113.005.136.048l.51.951c.027.035.022.095-.036.126zm-13.64 6.507l-.073.1.492.298.127-.194c.19-.29.072-.64-.208-.857l-1.99-1.526.148-.225 2.654 1.591.339-.514-3.142-1.885-.776 1.18 2.356 1.799c.081.06.127.143.072.233zm13.057 7.282l-.573-1.578-.573 1.578-1.751.035 1.394 1.007-.505 1.596 1.435-.951 1.436.951-.506-1.596 1.395-1.007-1.752-.035z"
            fill="CurrentColor" />
    </svg>